<?xml version="1.0" standalone="no"?>
<!DOCTYPE svg PUBLIC "-//W3C//DTD SVG 20010904//EN"
 "http://www.w3.org/TR/2001/REC-SVG-20010904/DTD/svg10.dtd">
<svg version="1.0" xmlns="http://www.w3.org/2000/svg"
 width="2000.000000pt" height="1320.000000pt" viewBox="0 0 2000.000000 1320.000000"
 preserveAspectRatio="xMidYMid meet">

<g transform="translate(0.000000,1320.000000) scale(0.100000,-0.100000)"
fill="#000000" stroke="none">
<path d="M6535 13170 c-1025 -186 -1798 -997 -1934 -2030 -16 -117 -24 -329
-17 -400 l7 -65 192 -2 c106 -1 237 -9 292 -16 55 -8 102 -13 103 -11 2 1 -2
62 -9 136 -23 248 2 546 65 788 186 715 704 1305 1386 1581 87 35 92 39 55 38
-22 0 -85 -9 -140 -19z"/>
<path d="M7280 13043 c-19 -2 -84 -12 -145 -23 -814 -143 -1465 -763 -1655
-1577 -80 -341 -62 -770 46 -1087 13 -38 22 -71 20 -73 -2 -2 -49 10 -105 26
-580 172 -1215 119 -1767 -148 -218 -106 -242 -124 -286 -213 -47 -95 -77
-201 -85 -301 l-6 -77 -127 -64 c-233 -118 -421 -238 -623 -399 -118 -93 -333
-290 -347 -317 -17 -31 76 -327 160 -516 l30 -66 46 54 c139 162 249 402 270
589 l7 59 86 64 c249 185 528 337 809 441 l117 44 -3 33 c-1 18 -14 75 -29
126 -14 51 -24 94 -21 97 8 9 245 73 333 90 178 35 395 5 558 -76 137 -69 269
-187 348 -313 l39 -61 -253 -6 c-252 -6 -370 -19 -563 -59 -359 -74 -730 -229
-1033 -430 l-136 -91 -21 -87 c-56 -235 -192 -480 -362 -654 l-56 -58 18 -32
c80 -140 292 -397 437 -530 156 -145 390 -321 376 -285 -4 10 -10 86 -13 169
l-7 152 29 -19 c148 -99 232 -155 236 -155 2 0 2 61 0 135 -4 132 -4 137 21
174 58 87 243 229 392 301 196 94 454 139 600 106 421 -97 567 -606 257 -897
-144 -136 -315 -178 -521 -129 -271 65 -534 38 -774 -81 -80 -40 -142 -79
-209 -132 -42 -34 -42 -31 -12 -189 44 -231 168 -461 342 -632 l60 -59 104 18
c207 34 373 106 563 246 144 105 294 179 460 225 367 102 637 316 796 634 90
179 123 325 123 535 0 165 -15 261 -65 400 -15 44 -26 81 -24 83 5 6 74 -114
109 -190 143 -309 159 -672 45 -995 -120 -341 -374 -619 -703 -771 -378 -174
-612 -327 -891 -581 -219 -198 -350 -362 -451 -562 -58 -117 -119 -295 -144
-427 -24 -121 -35 -352 -23 -452 l8 -65 34 90 c124 333 317 632 571 885 208
209 414 356 665 476 150 71 239 104 455 169 342 102 585 221 834 410 397 299
692 711 850 1185 30 91 65 219 77 285 13 66 26 124 30 129 13 16 24 -129 24
-329 0 -171 -4 -216 -23 -308 -69 -323 -215 -606 -438 -848 -328 -356 -651
-562 -1158 -739 -99 -34 -228 -84 -287 -111 -713 -321 -1240 -977 -1408 -1750
-27 -128 -51 -314 -51 -402 l0 -72 49 120 c113 281 264 522 473 755 136 152
281 275 478 405 113 75 347 201 356 193 1 -2 -6 -37 -16 -78 -81 -317 -74
-657 21 -976 l22 -75 47 188 c58 227 118 393 214 590 128 260 280 486 470 696
131 145 263 261 491 431 322 242 513 431 707 701 531 741 692 1700 433 2577
-44 147 -111 321 -172 442 -24 48 -43 90 -41 91 5 6 125 -166 192 -274 77
-125 193 -366 246 -511 56 -152 114 -384 142 -561 18 -121 22 -186 22 -409 1
-169 -4 -299 -12 -360 -70 -495 -237 -923 -513 -1312 -56 -79 -69 -104 -69
-135 0 -57 -37 -284 -64 -398 -42 -173 -129 -423 -187 -536 -10 -21 -17 -39
-14 -39 37 0 374 159 520 245 711 420 1225 1171 1359 1985 55 335 50 724 -14
1044 -174 862 -715 1576 -1515 1998 -145 77 -139 78 55 6 278 -102 603 -285
840 -474 121 -96 402 -381 491 -499 261 -343 432 -690 534 -1079 67 -258 95
-481 95 -765 0 -323 -46 -614 -145 -920 -60 -185 -75 -256 -75 -345 0 -105 41
-252 91 -326 l16 -24 99 54 c455 244 783 631 940 1105 75 230 89 322 89 605 0
217 -3 258 -23 360 -97 478 -442 1126 -857 1610 -326 380 -752 733 -1165 965
-123 69 -417 213 -520 254 -95 38 -70 39 122 7 478 -81 888 -243 1293 -511
197 -131 336 -245 515 -425 384 -383 647 -807 815 -1315 29 -88 61 -195 71
-238 10 -46 21 -74 27 -68 15 15 21 424 8 571 -95 1038 -698 1934 -1618 2402
-316 162 -612 253 -983 305 -140 19 -561 23 -683 6 -171 -24 39 35 255 72 717
121 1443 -32 2053 -433 325 -215 656 -555 857 -884 32 -51 62 -100 68 -108 27
-40 -19 320 -66 510 -77 316 -190 570 -376 846 -660 982 -1897 1403 -3018
1027 -318 -107 -657 -301 -888 -508 -29 -26 -55 -46 -57 -43 -8 8 164 205 251
288 377 357 827 574 1339 646 145 21 458 24 595 6 158 -21 377 -71 475 -108
54 -21 -144 164 -283 263 -279 199 -594 323 -935 368 -107 14 -390 18 -487 8z"/>
<path d="M4867 12550 c-315 -117 -606 -351 -790 -636 -121 -187 -205 -416
-237 -644 -13 -95 -14 -332 -1 -430 13 -94 62 -290 73 -290 4 0 54 13 110 29
57 15 147 36 201 46 l97 19 0 196 c0 115 6 246 15 319 44 352 157 695 326 989
88 153 117 195 282 408 23 30 20 30 -76 -6z"/>
<path d="M16790 11486 c95 -397 17 -826 -212 -1167 -135 -202 -445 -485 -699
-637 -117 -70 -192 -101 -484 -197 -476 -157 -623 -242 -901 -519 -199 -199
-315 -380 -388 -601 -130 -396 -56 -855 200 -1242 75 -113 252 -292 364 -365
309 -204 640 -287 1095 -275 302 8 494 41 970 168 525 139 629 160 845 166
678 20 1188 -293 1508 -925 149 -294 211 -544 199 -802 -21 -461 -296 -770
-702 -787 -171 -8 -433 28 -610 84 -154 49 -220 89 -497 306 -180 141 -601
357 -1027 528 -445 179 -685 239 -952 239 -339 0 -600 -107 -909 -374 -255
-221 -361 -277 -605 -322 -138 -26 -553 -26 -735 -1 -907 125 -1918 586 -2723
1240 -54 44 -99 78 -101 76 -1 -2 -32 -49 -67 -104 -191 -293 -488 -559 -807
-719 -129 -65 -275 -127 -282 -119 -21 25 -133 218 -155 266 -14 32 -35 95
-47 140 -29 106 -29 288 1 506 11 85 19 156 18 158 -2 1 -18 -34 -37 -80 -303
-749 -933 -1387 -1685 -1707 -118 -50 -666 -243 -672 -236 -3 2 48 114 112
248 192 397 250 551 305 803 26 115 65 394 57 402 -2 1 -43 -40 -92 -93 -130
-141 -275 -268 -489 -428 -211 -158 -354 -283 -462 -402 -326 -364 -538 -767
-648 -1234 -14 -58 -57 -292 -97 -520 -39 -228 -75 -418 -78 -422 -9 -10 -299
801 -332 929 -34 129 -58 299 -67 472 l-7 134 -56 -79 c-123 -172 -222 -377
-278 -577 -91 -323 -87 -692 10 -1018 16 -54 29 -101 29 -104 0 -12 -267 -134
-395 -180 -276 -100 -553 -152 -855 -162 -279 -9 -548 22 -805 91 l-90 24 -35
-28 c-121 -96 -361 -218 -546 -279 -286 -94 -509 -112 -909 -75 -91 8 -225
-10 -340 -46 -265 -85 -490 -311 -575 -578 -63 -195 -62 -386 2 -578 l31 -94
156 0 156 0 0 138 c1 127 3 143 32 225 55 155 145 276 275 367 72 51 187 103
250 115 l37 7 -64 -66 c-165 -171 -252 -375 -262 -613 -3 -66 -3 -133 1 -147
l6 -26 165 0 164 0 -6 88 c-20 313 175 616 468 726 35 13 80 27 99 31 34 8 34
6 -45 -77 -127 -134 -207 -296 -240 -485 -16 -89 -19 -198 -9 -252 l7 -31 653
0 654 0 0 63 c0 226 76 474 201 658 144 213 393 389 644 456 109 29 153 30
635 22 166 -3 224 0 305 15 276 50 519 156 746 325 l105 78 75 -29 c105 -42
351 -103 520 -130 197 -30 700 -33 907 -5 157 22 414 74 565 115 59 16 107 28
107 26 0 -7 -164 -86 -268 -129 -341 -138 -613 -194 -984 -202 -319 -7 -517
14 -781 84 l-98 26 -43 -32 c-272 -195 -571 -313 -906 -357 -125 -16 -203 -16
-561 2 -206 10 -365 -33 -535 -145 -347 -229 -494 -656 -361 -1051 l32 -95
155 -3 155 -2 -3 108 c-3 87 0 127 17 193 50 201 168 360 349 469 55 34 178
80 211 80 8 0 -13 -28 -46 -63 -169 -176 -263 -408 -263 -654 0 -56 3 -108 6
-117 5 -14 30 -16 168 -16 l161 0 1 128 c0 145 16 217 71 327 91 181 238 310
430 376 31 10 65 19 75 19 16 0 14 -5 -13 -27 -102 -86 -231 -304 -270 -458
-23 -91 -35 -249 -25 -318 l7 -47 2554 0 2554 0 56 71 c62 80 116 184 141 274
46 167 20 621 -56 990 -127 617 -423 1223 -829 1698 -108 126 -138 164 -116
146 11 -9 67 -53 125 -100 453 -362 744 -707 956 -1129 130 -259 218 -527 284
-865 12 -60 35 -144 50 -187 98 -269 324 -481 597 -560 77 -23 83 -23 733 -23
l655 0 7 89 c32 428 280 787 672 972 308 145 667 184 1011 109 175 -38 414
-45 581 -17 66 12 165 35 220 53 101 32 294 117 294 128 0 4 -24 15 -52 25
-29 11 -93 39 -142 64 -299 153 -522 434 -614 772 -23 87 -26 112 -26 290 0
179 2 203 26 290 49 182 53 183 54 9 2 -330 111 -600 335 -834 142 -148 304
-247 508 -312 133 -42 184 -80 221 -165 40 -94 12 -212 -66 -276 -57 -47 -269
-148 -400 -191 -223 -72 -316 -86 -589 -85 -230 0 -246 1 -394 32 -305 64
-534 30 -748 -110 -200 -131 -338 -324 -395 -554 -42 -171 -24 -404 43 -561
l18 -43 153 0 153 0 1 133 c0 121 3 140 31 222 17 50 48 120 69 155 52 92 181
216 271 263 79 41 174 77 205 77 16 0 14 -5 -13 -27 -102 -86 -228 -300 -268
-456 -24 -94 -36 -233 -27 -311 l7 -56 163 0 163 0 0 118 c0 141 18 225 73
337 85 176 239 311 429 376 98 34 103 27 29 -48 -181 -185 -282 -460 -261
-713 l6 -70 2266 2 2266 3 66 23 c221 75 320 250 264 467 -24 91 -44 128 -298
568 l-236 408 41 67 c105 170 218 444 273 663 57 222 69 335 69 614 0 280 -12
392 -69 616 -14 54 -25 102 -25 107 0 5 20 5 48 1 93 -17 365 -22 477 -10 364
40 646 163 883 386 214 201 364 494 424 823 28 157 30 455 5 622 -91 592 -378
1130 -785 1471 -257 215 -560 369 -882 448 -234 57 -501 80 -739 62 -294 -21
-532 -75 -1020 -231 -441 -140 -613 -178 -858 -187 -170 -6 -259 4 -388 44
-154 49 -286 126 -404 238 -126 120 -208 256 -252 420 -32 120 -33 323 -1 425
86 273 317 524 629 683 239 122 451 175 805 202 109 9 232 22 275 30 248 47
442 154 639 350 271 270 414 613 414 995 l0 115 -40 -72 c-74 -137 -143 -228
-259 -343 -101 -100 -236 -207 -285 -226 -9 -3 9 34 41 88 73 120 128 253 165
398 27 100 31 138 35 292 7 247 -17 386 -104 598 -35 86 -123 240 -167 295
l-24 30 18 -79z"/>
</g>
</svg>
