<?xml version="1.0" standalone="no"?>
<!DOCTYPE svg PUBLIC "-//W3C//DTD SVG 20010904//EN"
 "http://www.w3.org/TR/2001/REC-SVG-20010904/DTD/svg10.dtd">
<svg version="1.0" xmlns="http://www.w3.org/2000/svg"
 width="1600.000000pt" height="1600.000000pt" viewBox="0 0 1600.000000 1600.000000"
 preserveAspectRatio="xMidYMid meet">
<metadata>
Created by potrace 1.14, written by Peter Selinger 2001-2017
</metadata>
<g transform="translate(0.000000,1600.000000) scale(0.100000,-0.100000)"
fill="#000000" stroke="none">
<path d="M4485 10694 c-66 -69 -101 -78 -265 -71 -69 3 -135 9 -147 13 -18 5
-24 0 -37 -30 -23 -56 -75 -122 -117 -152 -38 -26 -38 -26 -136 -15 -93 10
-187 4 -238 -15 -11 -4 -35 -18 -53 -32 l-34 -24 50 -17 c101 -35 131 -73 140
-177 l5 -62 -39 9 c-105 24 -297 3 -385 -41 -39 -21 -119 -86 -119 -99 0 -3
28 -7 63 -7 63 -2 153 -30 192 -60 19 -15 20 -16 1 -27 -127 -78 -235 -200
-313 -352 -110 -215 -194 -319 -342 -424 -97 -69 -131 -109 -131 -153 0 -25
35 -88 49 -88 5 0 12 -21 15 -47 18 -130 49 -179 149 -244 38 -24 40 -29 52
-104 17 -103 80 -188 150 -201 65 -12 147 0 215 32 77 36 201 134 250 198 19
25 38 45 42 46 3 0 15 -24 25 -52 15 -43 18 -81 17 -205 l-2 -153 22 12 c11 6
51 42 88 79 49 49 77 89 105 148 21 44 40 81 43 81 13 0 32 -71 37 -140 3 -49
0 -104 -11 -159 -8 -47 -14 -87 -11 -89 2 -2 18 18 35 46 93 152 171 245 199
240 30 -6 19 -173 -32 -453 -25 -137 -49 -270 -52 -295 l-7 -45 54 52 c159
153 213 136 183 -60 -8 -51 -23 -125 -35 -164 -28 -100 -26 -114 10 -65 16 23
38 46 49 51 95 51 227 -82 365 -369 61 -127 48 -128 141 13 88 134 129 149
175 67 35 -63 34 -167 -3 -264 -15 -37 -27 -72 -27 -75 0 -4 62 -13 138 -20
259 -23 360 -68 321 -144 -8 -14 -111 -119 -229 -233 -118 -114 -417 -406
-663 -648 l-449 -441 -107 -21 c-327 -64 -481 -178 -456 -339 9 -61 22 -73 95
-85 134 -21 278 -7 469 46 l101 28 467 419 468 418 210 103 c449 219 661 379
864 654 46 62 85 111 87 109 2 -2 18 -98 34 -213 45 -310 91 -451 179 -547
l38 -42 6 -426 5 -426 -96 -12 c-218 -28 -356 -76 -399 -140 -17 -26 -23 -48
-23 -91 0 -87 35 -109 190 -117 181 -10 457 43 565 108 85 51 121 130 152 334
15 102 18 178 16 500 -1 209 -5 432 -10 495 l-10 115 67 135 c113 226 180 412
255 700 15 58 29 106 30 108 1 1 68 -4 148 -13 189 -19 472 -19 624 0 471 62
796 259 1060 642 28 40 53 70 57 66 3 -3 6 -29 6 -57 0 -69 17 -200 40 -318
46 -224 127 -409 288 -656 191 -290 225 -442 188 -816 -14 -130 -16 -140 -44
-170 -16 -17 -108 -120 -206 -228 -147 -164 -183 -198 -209 -202 -257 -39
-329 -58 -387 -101 -51 -38 -70 -73 -70 -132 0 -50 2 -54 41 -83 124 -90 280
-100 482 -32 74 25 82 31 200 147 67 66 213 219 323 340 230 252 228 249 311
299 77 46 144 110 175 167 19 37 23 59 23 134 0 77 -6 105 -37 195 l-36 105
99 404 c55 223 104 422 110 443 l10 39 87 -114 c246 -324 442 -502 692 -626
188 -94 264 -150 302 -224 45 -89 50 -470 8 -683 -12 -61 -25 -115 -28 -121
-4 -5 -38 -19 -77 -31 -93 -28 -173 -78 -197 -122 -26 -48 -20 -126 12 -152
36 -29 118 -50 223 -55 114 -7 191 7 255 44 89 51 101 137 111 768 l8 480 25
70 c14 39 40 99 57 135 20 41 31 81 31 108 0 40 -6 48 -95 143 -102 109 -122
144 -178 305 -79 226 -113 456 -104 689 6 126 30 341 40 351 5 5 236 -154 327
-224 116 -91 335 -305 435 -427 203 -247 376 -533 566 -934 76 -162 85 -188
78 -215 -22 -75 -2 -155 51 -208 32 -33 44 -38 83 -38 37 0 49 -5 65 -25 27
-34 46 -118 38 -171 -9 -67 8 -45 39 50 24 74 27 96 23 178 -7 153 -68 253
-174 284 l-50 14 -34 83 c-83 203 -266 538 -423 772 -220 328 -471 640 -861
1069 -158 174 -187 211 -258 333 -115 199 -293 463 -387 575 -236 281 -497
433 -860 500 -101 19 -153 22 -401 22 -299 0 -442 -11 -895 -70 -967 -125
-1090 -137 -1420 -137 -283 0 -429 13 -626 59 l-65 15 -23 72 c-48 147 -88
203 -179 245 -53 25 -66 27 -198 27 l-142 1 -26 31 c-34 40 -74 48 -146 29
-54 -14 -54 -14 -97 15 -44 31 -80 72 -107 126 -15 29 -17 31 -53 22 -61 -14
-170 -11 -211 6 -47 20 -108 78 -133 128 l-20 38 -117 -7 c-138 -8 -192 3
-239 49 l-33 31 -137 -38 c-308 -86 -391 -53 -403 160 l-5 91 -50 -53z"/>
</g>
</svg>
