<?xml version="1.0" standalone="no"?>
<!DOCTYPE svg PUBLIC "-//W3C//DTD SVG 20010904//EN"
 "http://www.w3.org/TR/2001/REC-SVG-20010904/DTD/svg10.dtd">
<svg version="1.0" xmlns="http://www.w3.org/2000/svg"
 width="1600.000000pt" height="1600.000000pt" viewBox="0 0 1600.000000 1600.000000"
 preserveAspectRatio="xMidYMid meet">
<metadata>
Created by potrace 1.14, written by Peter Selinger 2001-2017
</metadata>
<g transform="translate(0.000000,1600.000000) scale(0.100000,-0.100000)"
fill="#000000" stroke="none">
<path d="M4515 10723 c-62 -97 -172 -126 -378 -98 l-87 12 -24 -53 c-34 -74
-139 -176 -165 -160 -10 7 -120 19 -176 20 -67 2 -140 -18 -188 -50 l-40 -26
59 -20 c92 -31 124 -70 129 -154 1 -23 5 -45 8 -51 13 -21 -8 -32 -47 -23 -47
10 -238 6 -286 -7 -63 -17 -148 -65 -187 -105 l-38 -39 42 7 c37 6 132 -9 158
-25 6 -3 12 -6 15 -6 3 -1 20 -9 38 -19 23 -12 32 -22 28 -32 -3 -9 -6 -18 -6
-20 0 -3 -4 -2 -10 1 -5 3 -10 1 -10 -6 0 -7 -3 -10 -6 -6 -9 9 -70 -39 -125
-98 -81 -86 -125 -147 -164 -230 -21 -44 -63 -118 -93 -165 -56 -88 -195 -234
-247 -260 -47 -24 -123 -100 -130 -129 -7 -34 9 -78 36 -100 12 -10 23 -33 25
-56 15 -122 48 -178 138 -238 27 -17 50 -39 52 -47 12 -83 18 -107 34 -144 24
-57 47 -83 93 -107 75 -39 197 -18 312 54 63 39 168 135 202 185 21 30 28 28
46 -16 28 -69 33 -141 23 -300 l-5 -74 37 28 c58 43 135 127 154 170 6 13 15
24 20 24 4 0 7 3 6 8 -1 4 4 20 10 35 7 16 12 32 12 36 0 5 6 14 14 20 11 9
16 2 26 -36 7 -27 15 -52 18 -58 7 -11 5 -129 -3 -165 -2 -14 -7 -41 -10 -60
-3 -19 -8 -44 -12 -55 -5 -17 -4 -17 9 -4 9 8 23 31 33 49 10 19 21 37 24 40
4 3 18 23 31 45 41 67 94 127 128 144 21 11 23 9 29 -21 11 -53 4 -146 -26
-313 -11 -60 -22 -123 -25 -140 -3 -16 -8 -41 -11 -55 -12 -52 -30 -152 -39
-225 l-6 -40 38 40 c90 94 169 137 194 108 26 -32 6 -216 -38 -351 -21 -64
-17 -83 8 -42 34 53 59 72 98 74 57 2 143 -70 209 -174 22 -36 44 -69 49 -75
4 -5 32 -59 61 -120 29 -60 55 -112 57 -114 4 -4 53 51 54 61 0 11 87 132 107
149 35 31 60 29 86 -5 36 -46 50 -99 43 -164 -6 -73 -5 -68 -48 -175 -6 -15
-9 -29 -7 -31 2 -2 50 -7 106 -10 57 -4 113 -9 125 -12 13 -2 38 -6 55 -8 60
-8 138 -35 161 -56 35 -33 19 -87 -41 -140 -64 -56 -346 -331 -1044 -1017
l-246 -242 -63 -10 c-268 -47 -451 -136 -484 -237 -17 -51 -19 -117 -5 -151
12 -27 19 -31 71 -39 81 -11 210 -12 264 -2 25 5 61 10 80 13 42 6 54 9 145
35 65 18 85 25 101 32 4 2 26 21 49 43 23 22 62 57 86 79 97 86 206 183 244
218 68 62 88 78 97 78 5 0 6 5 3 10 -3 6 -3 10 2 10 4 0 24 15 44 33 20 17 66
59 103 92 97 85 104 92 195 174 105 95 116 103 171 126 25 11 115 54 200 96
303 151 484 273 639 431 83 83 115 120 138 155 10 16 22 33 28 39 6 6 28 36
49 67 22 32 41 56 43 54 2 -2 5 -17 7 -33 3 -16 7 -39 10 -52 3 -13 8 -51 11
-85 3 -34 9 -70 12 -81 3 -10 7 -35 8 -55 3 -32 13 -93 29 -171 9 -40 49 -165
56 -170 3 -3 11 -17 17 -31 6 -14 32 -52 57 -83 47 -57 52 -74 44 -156 -1 -8
2 -25 6 -37 5 -15 3 -23 -4 -23 -6 0 -8 -5 -5 -11 4 -5 9 -161 11 -345 3 -261
1 -334 -9 -335 -28 -2 -75 -8 -110 -13 -20 -3 -54 -9 -74 -12 -71 -10 -187
-45 -233 -70 -63 -34 -90 -77 -90 -143 0 -93 46 -115 240 -115 209 1 450 52
523 113 9 8 17 11 17 7 0 -24 75 92 86 132 27 104 36 162 51 307 13 131 5 786
-12 934 -6 53 8 111 26 111 5 0 9 4 9 9 0 4 27 65 60 134 33 70 60 129 60 133
0 3 6 20 14 37 22 50 53 136 76 212 12 39 24 77 27 85 3 8 8 24 10 35 2 11 11
45 20 75 9 30 18 61 19 69 1 8 9 34 16 59 l13 44 70 -7 c38 -4 88 -10 110 -12
76 -8 480 -11 540 -3 33 4 85 11 115 15 30 4 59 9 63 12 5 3 18 6 30 8 55 7
183 43 232 65 104 47 137 60 145 60 6 0 10 5 10 10 0 6 4 10 9 10 12 0 107 57
150 90 149 114 249 220 358 378 13 18 23 36 23 40 0 4 9 18 20 32 15 18 18 20
13 6 -5 -14 -3 -17 6 -11 10 6 11 3 2 -12 -6 -11 -8 -22 -6 -24 2 -3 7 -38 11
-79 11 -129 21 -203 30 -232 2 -9 7 -27 9 -40 14 -70 18 -89 37 -148 32 -102
87 -226 145 -330 64 -113 76 -133 84 -140 12 -11 116 -177 132 -210 16 -36 39
-93 38 -97 0 -2 7 -22 15 -45 8 -23 17 -56 19 -73 2 -16 7 -41 10 -55 6 -28 7
-227 0 -280 -2 -19 -7 -69 -10 -110 -9 -116 -3 -104 -140 -255 -41 -44 -82
-91 -93 -105 -11 -14 -37 -44 -59 -65 -21 -22 -61 -65 -88 -96 -28 -31 -57
-56 -65 -57 -93 -7 -157 -16 -225 -33 -22 -5 -51 -12 -65 -15 -41 -9 -134 -63
-153 -90 -32 -43 -38 -111 -13 -149 16 -24 110 -73 175 -90 44 -11 136 -12
207 -2 70 11 200 62 227 89 15 15 29 28 31 28 4 0 206 201 206 206 0 2 19 23
43 47 23 24 76 81 117 127 232 257 264 288 337 329 59 32 106 71 147 121 35
44 49 93 50 175 0 66 -7 100 -37 193 -38 116 -39 137 -10 212 3 8 7 26 9 40 2
14 21 95 43 180 22 85 37 158 35 162 -3 5 -1 8 4 8 5 0 9 6 9 13 1 14 5 35 28
127 22 87 25 101 31 130 2 14 7 32 11 40 9 22 10 27 12 55 2 35 11 31 51 -23
19 -25 40 -53 47 -62 281 -358 449 -508 713 -637 63 -31 116 -60 118 -65 2 -4
8 -8 14 -8 17 0 113 -82 135 -115 30 -46 42 -91 49 -195 13 -167 9 -322 -11
-436 -3 -16 -7 -42 -9 -59 -3 -16 -8 -41 -11 -55 -3 -14 -9 -41 -13 -60 -7
-33 -12 -36 -76 -57 -77 -25 -164 -68 -186 -92 -38 -41 -49 -143 -19 -173 11
-11 70 -40 89 -44 3 0 16 -4 30 -7 14 -4 48 -9 75 -11 28 -2 55 -5 60 -6 6 -1
12 -2 15 -1 3 1 30 4 60 6 68 4 109 17 164 49 36 21 45 33 56 73 6 26 14 55
17 63 5 15 11 67 18 165 2 28 4 50 5 50 1 0 4 191 6 425 5 475 7 492 81 647
40 86 52 152 31 181 -7 11 -49 58 -94 105 -44 46 -91 103 -102 126 -39 74
-111 287 -129 381 -3 14 -6 30 -7 35 -9 37 -26 144 -32 200 -5 51 -4 287 1
340 3 22 7 63 10 90 8 78 21 155 29 162 4 4 216 -137 270 -179 191 -153 393
-342 461 -433 17 -22 40 -50 52 -63 45 -46 228 -313 295 -430 56 -98 180 -328
182 -337 5 -20 61 -130 69 -133 4 -2 7 -9 7 -16 0 -11 46 -116 70 -158 5 -9 7
-27 4 -40 -20 -93 -3 -174 48 -223 25 -23 42 -30 80 -31 53 -3 78 -17 78 -43
0 -9 4 -21 10 -27 5 -5 12 -34 15 -63 3 -30 7 -57 10 -59 3 -3 0 -11 -6 -19
-8 -9 -8 -13 -1 -13 6 0 21 26 33 58 19 47 23 77 23 172 0 101 -3 121 -24 168
-13 28 -27 52 -32 52 -4 0 -8 6 -8 13 0 15 -76 66 -110 73 -43 9 -55 20 -64
57 -5 21 -13 37 -18 37 -4 0 -8 7 -8 15 0 8 -4 23 -9 33 -5 9 -41 82 -80 162
-78 160 -96 194 -213 387 -26 43 -55 92 -65 108 -10 17 -21 32 -24 35 -3 3
-35 48 -70 99 -92 136 -113 165 -143 203 -14 18 -30 38 -34 43 -51 70 -67 91
-74 93 -4 2 -8 10 -8 17 0 7 -3 15 -8 17 -4 2 -37 39 -72 83 -81 100 -101 124
-120 145 -8 9 -40 45 -70 81 -30 35 -59 67 -65 71 -5 4 -6 8 -2 8 4 0 -3 10
-16 23 -14 12 -51 51 -83 87 -32 36 -97 108 -145 160 -48 52 -102 112 -121
133 -19 20 -57 76 -84 123 -27 48 -59 103 -71 123 -13 20 -26 43 -30 51 -4 8
-14 26 -24 40 -9 14 -38 59 -65 100 -47 74 -159 235 -179 256 -5 6 -30 36 -55
65 -65 78 -177 189 -184 182 -3 -4 -6 -2 -6 3 0 12 -121 105 -134 103 -5 0
-13 6 -18 15 -5 9 -13 14 -18 11 -5 -3 -12 0 -15 5 -19 31 -288 136 -395 155
-19 4 -44 8 -55 10 -11 2 -20 4 -20 5 0 2 -29 6 -120 16 -79 9 -496 10 -595 1
-80 -8 -150 -15 -215 -21 -27 -3 -75 -8 -105 -11 -30 -3 -66 -8 -80 -10 -14
-2 -54 -7 -90 -11 -71 -6 -96 -9 -151 -19 -19 -3 -53 -7 -75 -9 -37 -3 -111
-13 -164 -22 -14 -2 -45 -6 -70 -9 -25 -3 -65 -8 -90 -12 -25 -3 -54 -7 -65
-9 -11 -1 -40 -4 -65 -7 -25 -3 -70 -9 -100 -12 -30 -4 -66 -9 -80 -11 -14 -3
-52 -7 -85 -9 -33 -3 -82 -7 -110 -10 -150 -14 -271 -19 -460 -19 -219 0 -381
10 -482 29 -37 7 -59 11 -105 19 -79 14 -108 27 -114 54 -4 15 -11 32 -16 38
-5 7 -8 16 -7 20 5 22 -52 138 -84 174 -61 66 -146 90 -313 85 -82 -2 -124 0
-124 7 0 6 -13 23 -29 38 -31 31 -64 32 -148 9 -29 -8 -45 -8 -55 -1 -66 53
-102 92 -124 132 -24 45 -28 48 -53 39 -51 -17 -161 -17 -208 1 -59 22 -116
73 -142 126 l-22 43 -132 -6 c-146 -5 -187 4 -230 53 -16 19 -27 24 -47 19
-14 -4 -32 -8 -40 -10 -8 -2 -42 -10 -75 -20 -171 -47 -251 -58 -305 -41 -37
12 -78 61 -91 109 -7 23 -13 75 -13 114 -1 40 -2 73 -2 73 -1 0 -10 -12 -19
-27z"/>
</g>
</svg>
