<?xml version="1.0" encoding="utf-8"?>
<!-- Generator: Adobe Illustrator 25.0.0, SVG Export Plug-In . SVG Version: 6.00 Build 0)  -->
<svg version="1.1"
	 id="Layer_1" xmlns:krita="http://krita.org/namespaces/svg/krita" xmlns:sodipodi="http://sodipodi.sourceforge.net/DTD/sodipodi-0.dtd"
	 xmlns="http://www.w3.org/2000/svg" xmlns:xlink="http://www.w3.org/1999/xlink" x="0px" y="0px" viewBox="0 0 1600 738"
	 style="enable-background:new 0 0 1600 738;" xml:space="preserve">
<style type="text/css">
	.st0{fill:#FFFFFF;stroke:#FFFFFF;stroke-miterlimit:10;}
</style>
<path id="shape0" sodipodi:nodetypes="ccccccccccccccccccccccccccccccccccccccccccccccccccccccczczzzzccccc" class="st0" d="
	M508.4,116.3c6.5,12.2,23.8,7.5,38.2,7.4c9.2,21.4,26.5,19.9,40.3,16.3c2.8,6.2,5.7,12.5,17,18.7c17.5-6.5,19,0,21.9,5.3
	c48.2-7.2,47.4,15.5,54.1,33.6c75.5,19.7,167-3.3,252.8-11c133.6-15.1,165.8,25.2,220.8,121.3c30.7,33.9,113.1,117.7,149.5,212
	c24.2,2,27.3,34.2,17.2,53.8c2-8.6-3-25.5-9.2-22.3c-9.8,1.8-19.1-11.7-13.5-27c-34.3-75-66.5-132.3-143-178.5
	c-6,36.7-8.4,71.7,12,120.2c5,12,19.6,20.5,21.8,27c2.8,9.6-7.4,14.3-11.8,39.3c-1,45.1,1.7,96.1-6,115.5c-11.7,13.5-47.8,9.1-54,1
	c-1.7-9-3.9-18.9,28.3-26.7c5.6-23.6,8.2-43.3,4.6-71.4c0.6-14.9-13.6-23.4-25.8-30.1c-33.6-13.1-60.7-43.3-85.9-78.8l-22.3,90.5
	c7,22,20.7,44.4-19.4,63.6c-22.9,24-47.2,53.4-68.7,71.9c-19.2,7.7-38.4,12.6-58.2-2.8c-6-20,18.4-25.4,48-28.2l41.8-46.6
	c2.1-27.1,8.9-53.1-10.6-85.6C929.7,477,910.1,451.4,908,387c-42.3,74.2-111.9,83.6-190,73c-7.7,27.8-12.3,52.9-35.3,94.7
	c5.8,89.5,1.9,136.8-13.1,143.9c-16.4,11.6-78.1,17.2-75.7,3.9c-4.6-18.1,16.4-23.2,51.6-27.2l-1.1-86.3
	c-21.8-19.3-19-53.7-25.5-82.4c-19,26.1-31.4,51-116,88l-94,84.1c-20.7,6.6-41.5,11.7-64.1,6.2c-6.6-18.3,2.2-33.8,54-41.5
	L519.5,525l0,0c17.4-14.3,32.5-28.2-32.3-30.7c7.9-17.5,8.9-27.9,0.8-38.8c-8-6.8-16,12-24.1,22.5c-21.2-48.6-39.4-60.2-49.9-38.2
	c7.1-23.9,9.1-38.3,5.5-42.5c-3.2-3.6-10.6,0.7-22.8,13.7c5.5-40.6,28.9-122.7-14.8-50.2c2.4-13,6.2-25.8-2.3-40.8
	c-5.1,16.9-14.4,26.8-25.1,34.3c0.8-14,3.9-28-4.2-42.1c-21.7,30.4-63.9,46.9-66.1,1.8c-8.7-8.9-17.4-4.6-19.4-31.5
	c-10.1-7.1-7.9-15.1,6.7-24c14.6-9,27.3-25.8,38.2-50.6c10.6-14.6,19.6-23.3,26.9-26.2c11-4.2-20.9-14.5-24.7-10.3
	c-3.9,4.2,5-14.2,33.6-14.8c28.6-0.7,19.5,9,19.8-6c0.2-10-5.9-16.1-18.4-18.4c7.2-7.1,20.3-9.2,40.7-4.9
	c9.4-5.2,14.9-12.6,17.7-21.6c20.2,3.6,39.5,5.6,47.7-10.3C449.9,140.8,482.9,121.8,508.4,116.3z"/>
</svg>
